<svg xmlns="http://www.w3.org/2000/svg" fill-rule="evenodd" stroke-miterlimit="1.414" viewBox="0 0 970 128" clip-rule="evenodd" stroke-linejoin="round">
  <path fill="#FBBC05" fill-rule="nonzero" d="M82.007 95.287l-12 20.86H38.58c-2.8 0-5.394-1.504-6.787-3.934l-25.42-44.32c-1.378-2.406-1.378-5.373 0-7.78l9.674-16.86L27.987 64l18 31.287h36.02z"/>
  <path fill="#EA4335" fill-rule="nonzero" d="M121.627 67.893l-25.42 44.327c-1.39 2.43-3.987 3.934-6.787 3.933H70l12-20.86L100.013 64 82 32.713h23.907l15.713 27.4c1.39 2.403 1.393 5.375.007 7.78z"/>
  <path fill="#4285F4" fill-rule="nonzero" d="M105.913 32.713H45.987L27.987 64l-11.94-20.753 15.746-27.46c1.392-2.43 3.987-3.935 6.787-3.934h50.847c2.8.002 5.393 1.506 6.786 3.934l9.7 16.926z"/>
  <path fill="#E0E0E0" fill-rule="nonzero" d="M82.007 32.713l18 31.287L82 95.287H45.993L27.987 64l18-31.287h36.02"/>
  <circle cx="64" cy="64" r="15.647" fill="#fff"/>
  <path fill="#fff" fill-opacity=".2" fill-rule="nonzero" d="M31.793 16.433c1.39-2.43 3.987-3.934 6.787-3.933h50.847c2.8.002 5.393 1.505 6.786 3.933l9.334 16.28h.373l-9.707-16.926c-1.39-2.43-3.986-3.935-6.786-3.934H38.58c-2.8 0-5.394 1.504-6.787 3.934l-15.746 27.46.186.326 15.56-27.14z"/>
  <path fill="#1A237E" fill-opacity=".2" fill-rule="nonzero" d="M27.987 64l18-31.287h59.926l-.373-.653H45.987l-18 31.287"/>
  <path fill="#fff" fill-opacity=".2" fill-rule="nonzero" d="M6.373 60.76l9.674-16.867 11.94 20.754 18 31.286h35.64l.38-.653h-36.02l-18-31.28-11.94-20.753-9.674 16.86c-.728 1.283-1.082 2.745-1.02 4.22.05-1.254.4-2.477 1.02-3.567z"/>
  <path fill="#BF360C" fill-opacity=".2" fill-rule="nonzero" d="M70.38 115.493h-31.8c-2.8 0-5.394-1.504-6.787-3.933L6.373 67.24c-.62-1.09-.97-2.313-1.02-3.567-.068 1.475.286 2.94 1.02 4.22l25.42 44.327c1.39 2.43 3.987 3.934 6.787 3.933h31.427l.373-.66z"/>
  <path fill="#3E2723" fill-rule="nonzero" d="M100.38 64l-18-31.287h-.373L100.013 64h.367zm21.247 3.24l-25.42 44.327c-1.39 2.43-3.987 3.934-6.787 3.933H70.38l-.38.653h19.42c2.8-.002 5.393-1.505 6.787-3.933l25.42-44.327c.73-1.282 1.084-2.745 1.02-4.22-.05 1.254-.4 2.477-1.02 3.567z"/>
  <path fill="#fff" fill-rule="nonzero" d="M105.913 33.36l15.714 27.4c.62 1.09.97 2.313 1.02 3.567.067-1.475-.286-2.94-1.02-4.22l-15.714-27.4H82.007l.38.653m-.38 62.58L100.38 64h-.367L82.007 95.287l-12 20.86h.373L82.007 95.94z"/>
  <path fill="url(#a)" fill-rule="nonzero" d="M121.627 60.107l-15.714-27.4-9.706-16.927c-1.39-2.43-3.987-3.934-6.787-3.933H38.58c-2.8 0-5.394 1.504-6.787 3.933L6.373 60.107c-1.378 2.407-1.378 5.373 0 7.78l25.42 44.326c1.39 2.43 3.987 3.935 6.787 3.934h50.847c2.8-.002 5.393-1.506 6.786-3.934l25.42-44.326c1.38-2.407 1.377-5.376-.006-7.78z"/>
  <path fill="none" d="M0 0h128v128H0z"/>
  <path fill="#999" fill-rule="nonzero" d="M446.25 63.205c0-17.685 13.604-31.29 31.29-31.29 9.18 0 16.663 3.742 22.105 9.864l-5.442 5.1c-4.08-5.1-9.862-7.49-16.664-7.49-12.59 0-23.13 9.18-23.13 23.8S464.95 87 477.53 87c7.48 0 13.94-3.4 18.362-8.842l5.44 5.44c-5.1 6.122-13.603 10.544-23.805 10.544-17.686.34-31.29-12.925-31.29-30.95zm60.877 29.928V33.277h7.822v59.856h-7.83zm55.776-20.405c0 12.583-8.843 21.766-21.086 21.766-12.244 0-21.086-9.523-21.086-21.766 0-12.584 8.85-21.766 21.09-21.766 12.25 0 21.09 9.182 21.09 21.766zm-7.823 0c0-9.523-6.46-14.965-13.263-14.965-6.802 0-13.264 5.442-13.264 14.965 0 9.522 6.462 14.964 13.264 14.964 6.802-.34 13.263-5.782 13.263-14.964zm42.512 20.405v-5.78h-.34c-2.38 3.74-7.482 7.14-12.923 7.14-10.55 0-15.65-7.14-15.65-17.344V51.98h7.82v23.81c0 8.5 4.42 11.562 10.2 11.562 6.8 0 10.88-6.462 10.88-12.584V52.322h7.82v41.152h-7.83v-.34zm13.604-20.405c0-12.584 9.183-21.766 19.386-21.766 6.462 0 11.563 3.4 13.944 7.142h.34l-.34-5.782V33.277h7.822v59.856h-7.142v-5.78h-.34c-2.38 3.74-7.482 7.14-13.944 7.14-10.543 0-19.726-9.182-19.726-21.765zm34.01 0c0-9.523-6.122-14.965-12.924-14.965s-12.923 5.442-12.923 14.965c0 9.182 6.12 14.964 12.92 14.964 6.46-.34 12.92-5.782 12.92-14.964zm28.228 20.405V33.277h20.405c9.86 0 18.7 7.482 18.7 17.685 0 10.202-8.85 17.685-18.71 17.685h-12.58v24.146h-7.82v.34zm20.746-31.628c6.8 0 10.543-5.782 10.543-10.543 0-4.762-3.742-10.543-10.543-10.543h-12.924V61.5h12.924zm23.806 31.628V33.277h7.822v59.856h-7.822zM732.27 80.89c0-9.183 8.503-14.284 18.025-14.284 5.442 0 9.523 1.7 11.224 2.38v-1.02c0-6.12-5.11-9.862-10.55-9.862-4.42 0-8.51 2.04-9.87 5.78l-7.14-3.06c1.36-3.74 6.46-9.862 16.66-9.862S769 57.082 769 68.647v24.827h-7.48v-5.782h-.34c-2.38 3.4-6.46 7.142-13.605 7.142-8.163-.34-15.305-5.442-15.305-13.944zm29.25-5.442s-3.402-2.72-9.864-2.72c-8.163 0-11.223 4.42-11.223 8.162 0 4.42 4.42 6.462 8.502 6.462 6.122 0 12.584-5.102 12.584-11.904zm18.364 5.442V59.464h-7.142v-7.142h7.142V39.738h7.822v12.584h10.203v7.142H787.7V80.55c0 4.76 2.04 6.802 5.44 6.802 1.362 0 2.382 0 3.402-.68l2.72 6.46c-1.7.682-3.74 1.022-6.12 1.022-8.503-.34-13.264-5.102-13.264-13.264zm49.994-46.933l-2.72 6.462c-1.02-.35-2.042-.69-3.402-.69-3.74 0-6.802 2.38-6.802 7.14v5.1h10.543v7.14h-10.543v34.01h-7.822v-34h-7.482v-7.14h7.822v-5.1c0-8.51 5.782-13.95 14.624-13.95 2.38 0 4.08.34 5.782 1.02zm42.172 38.77c0 12.584-8.843 21.767-21.086 21.767-12.244 0-21.086-9.523-21.086-21.766 0-12.584 8.842-21.766 21.086-21.766 12.243 0 21.086 9.182 21.086 21.766zm-7.823 0c0-9.522-6.46-14.964-13.263-14.964-6.802 0-13.264 5.442-13.264 14.965 0 9.522 6.462 14.964 13.264 14.964 6.802-.34 13.263-5.782 13.263-14.964zm13.944 20.406v-40.81h7.49v6.8h.34c1.7-4.76 7.49-7.82 11.91-7.82 2.38 0 4.08.34 5.78 1.02l-3.06 7.14c-1.02-.34-2.38-.68-4.08-.68-5.44 0-10.54 4.422-10.54 11.904v22.446h-7.82zm29.59-40.81h7.49v5.78h.34c2.38-4.08 7.82-7.14 12.59-7.14 6.46 0 10.89 3.06 12.93 7.82 3.06-4.76 7.82-7.82 14.29-7.82 10.21 0 14.63 7.14 14.63 17.343v25.168h-7.82V69.667c0-8.503-3.4-11.223-9.18-11.223-6.12 0-10.54 6.46-10.54 12.583v22.787h-7.822V70.007c0-8.502-3.4-11.223-9.184-11.223-6.126 0-10.547 6.462-10.547 12.583v22.787h-7.82V52.322h.68zm-751.63 8.393c0-18.956 15.89-34.317 34.84-34.317 10.46 0 17.91 4.11 23.53 9.47l-6.66 6.6c-3.98-3.8-9.41-6.74-16.86-6.74-13.79 0-24.57 11.11-24.57 24.9s10.79 24.9 24.58 24.9c8.96 0 14.06-3.6 17.33-6.87 2.68-2.68 4.45-6.54 5.1-11.77H191v-9.34h31.574c.326 1.7.52 3.66.52 5.88 0 7.06-1.894 15.753-8.104 21.9-6.08 6.272-13.795 9.606-23.99 9.606-18.96 0-34.84-15.36-34.84-34.25zm92.37-9.87c-12.22 0-22.16 9.282-22.16 22.094 0 12.746 9.94 22.093 22.16 22.093 12.23 0 22.16-9.347 22.16-22.093 0-12.812-9.93-22.094-22.16-22.094zm0 35.428c-6.66 0-12.48-5.49-12.48-13.4 0-7.975 5.75-13.4 12.49-13.4 6.67 0 12.49 5.425 12.49 13.4 0 7.91-5.82 13.4-12.48 13.4zm48.37-35.428c-12.22 0-22.16 9.282-22.16 22.094 0 12.746 9.94 22.093 22.16 22.093 12.23 0 22.16-9.347 22.16-22.093 0-12.812-9.93-22.094-22.16-22.094zm0 35.428c-6.66 0-12.48-5.49-12.48-13.4 0-7.975 5.76-13.4 12.49-13.4 6.74 0 12.49 5.425 12.49 13.4 0 7.91-5.82 13.4-12.48 13.4zm59.36-34.12v3.594h-.32c-2.16-2.615-6.34-4.968-11.63-4.968-11.04 0-21.18 9.675-21.18 22.16 0 12.354 10.14 22.028 21.18 22.028 5.3 0 9.48-2.353 11.64-5.033h.33v3.203c0 8.432-4.51 12.942-11.762 12.942-5.95 0-9.61-4.248-11.11-7.844l-8.433 3.53c2.42 5.883 8.89 13.073 19.61 13.073 11.374 0 20.983-6.67 20.983-23.01V52.15h-9.28zm-11.11 34.12c-6.66 0-12.29-5.62-12.29-13.334 0-7.78 5.63-13.466 12.29-13.466 6.61 0 11.77 5.687 11.77 13.466.07 7.778-5.16 13.334-11.76 13.334zm36.74 7.386h-9.67V28.753h9.68v64.91zm26.61-7.386c-4.97 0-8.43-2.288-10.72-6.667l29.55-12.224-.98-2.484c-1.83-4.97-7.45-14.06-18.89-14.06-11.372 0-20.85 8.95-20.85 22.09 0 12.35 9.348 22.09 21.898 22.09 10.136 0 15.95-6.21 18.437-9.81l-7.52-5.04c-2.55 3.66-5.95 6.08-10.915 6.08zm-.72-26.93c3.86 0 7.13 1.895 8.17 4.706l-19.74 8.17c-.26-8.497 6.6-12.877 11.57-12.877z"/>

  <defs>
    <radialGradient id="a" cx="0" cy="0" r="1" gradientUnits="userSpaceOnUse" gradientTransform="translate(22.208 18.89) scale(120.415)">
      <stop offset="0" stop-color="#fff" stop-opacity=".098"/>
      <stop offset="1" stop-color="#fff" stop-opacity="0"/>
    </radialGradient>
  </defs>
</svg>
